<?xml version="1.0" encoding="UTF-8"?>
<svg xmlns="http://www.w3.org/2000/svg" xmlns:xlink="http://www.w3.org/1999/xlink" width="25px" height="25px" viewBox="0 0 25 25" version="1.1">
<g id="surface1">
<path style=" stroke:none;fill-rule:nonzero;fill:rgb(40.784314%,41.568627%,43.529412%);fill-opacity:1;" d="M 15.632812 3.390625 C 17.550781 2.976562 19.929688 2.996094 23.167969 3.804688 C 23.726562 3.945312 24.066406 4.507812 23.925781 5.066406 C 23.789062 5.621094 23.222656 5.960938 22.664062 5.820312 C 19.652344 5.070312 17.605469 5.089844 16.074219 5.421875 C 14.535156 5.753906 13.433594 6.414062 12.261719 7.128906 L 12.175781 7.183594 C 11.046875 7.871094 9.796875 8.632812 8.148438 8.90625 C 6.433594 9.191406 4.414062 8.941406 1.695312 7.855469 C 1.164062 7.644531 0.902344 7.039062 1.117188 6.503906 C 1.332031 5.972656 1.9375 5.714844 2.46875 5.925781 C 4.960938 6.921875 6.585938 7.058594 7.804688 6.855469 C 9.039062 6.652344 9.984375 6.082031 11.175781 5.355469 C 12.347656 4.640625 13.71875 3.804688 15.632812 3.390625 Z M 15.632812 3.390625 "/>
<path style=" stroke:none;fill-rule:nonzero;fill:rgb(40.784314%,41.568627%,43.529412%);fill-opacity:1;" d="M 23.167969 7.960938 C 19.929688 7.152344 17.550781 7.132812 15.632812 7.546875 C 13.71875 7.960938 12.347656 8.796875 11.175781 9.511719 C 9.984375 10.238281 9.039062 10.808594 7.804688 11.011719 C 6.585938 11.214844 4.960938 11.078125 2.46875 10.082031 C 1.9375 9.871094 1.332031 10.128906 1.117188 10.660156 C 0.902344 11.195312 1.164062 11.800781 1.695312 12.011719 C 4.414062 13.097656 6.433594 13.347656 8.148438 13.0625 C 9.796875 12.789062 11.046875 12.027344 12.175781 11.339844 L 12.261719 11.285156 C 13.433594 10.570312 14.535156 9.910156 16.074219 9.578125 C 17.605469 9.246094 19.652344 9.226562 22.664062 9.976562 C 23.222656 10.117188 23.789062 9.777344 23.925781 9.222656 C 24.066406 8.664062 23.726562 8.101562 23.167969 7.960938 Z M 23.167969 7.960938 "/>
<path style=" stroke:none;fill-rule:evenodd;fill:rgb(40.784314%,41.568627%,43.529412%);fill-opacity:1;" d="M 19.792969 10.445312 C 19.429688 10.445312 19.128906 10.632812 18.917969 10.914062 C 18.84375 11.011719 18.671875 11.246094 18.445312 11.574219 C 18.144531 12.007812 17.742188 12.613281 17.335938 13.285156 C 16.933594 13.957031 16.515625 14.714844 16.199219 15.457031 C 15.890625 16.167969 15.625 16.9375 15.625 17.71875 C 15.625 17.941406 15.652344 18.160156 15.6875 18.375 C 15.75 18.738281 15.871094 19.234375 16.125 19.742188 C 16.382812 20.253906 16.785156 20.800781 17.40625 21.214844 C 18.035156 21.632812 18.828125 21.875 19.792969 21.875 C 20.753906 21.875 21.546875 21.632812 22.175781 21.214844 C 22.796875 20.800781 23.199219 20.253906 23.457031 19.742188 C 23.710938 19.234375 23.835938 18.738281 23.894531 18.375 C 23.929688 18.160156 23.957031 17.9375 23.957031 17.71875 C 23.957031 16.9375 23.691406 16.167969 23.386719 15.457031 C 23.066406 14.714844 22.652344 13.957031 22.246094 13.285156 C 21.839844 12.613281 21.4375 12.007812 21.136719 11.574219 C 20.910156 11.246094 20.738281 11.011719 20.664062 10.914062 C 20.453125 10.632812 20.152344 10.445312 19.792969 10.445312 Z M 21.472656 16.277344 C 21.203125 15.652344 20.839844 14.984375 20.460938 14.355469 C 20.230469 13.972656 20 13.613281 19.792969 13.300781 C 19.582031 13.613281 19.351562 13.972656 19.121094 14.355469 C 18.746094 14.984375 18.378906 15.652344 18.113281 16.277344 L 18.097656 16.3125 C 17.914062 16.738281 17.695312 17.246094 17.707031 17.71875 C 17.722656 18.09375 17.820312 18.480469 17.988281 18.8125 C 18.121094 19.078125 18.304688 19.3125 18.5625 19.484375 C 18.8125 19.648438 19.191406 19.796875 19.792969 19.796875 C 20.390625 19.796875 20.769531 19.648438 21.019531 19.484375 C 21.277344 19.3125 21.460938 19.078125 21.59375 18.8125 C 21.761719 18.480469 21.863281 18.09375 21.875 17.71875 C 21.886719 17.246094 21.671875 16.738281 21.484375 16.3125 Z M 21.472656 16.277344 "/>
<path style=" stroke:none;fill-rule:nonzero;fill:rgb(40.784314%,41.568627%,43.529412%);fill-opacity:1;" d="M 14.71875 12.011719 C 15.511719 11.753906 16.117188 12.578125 15.746094 13.320312 C 15.574219 13.660156 15.382812 13.949219 15.003906 14.085938 C 13.984375 14.445312 13.140625 14.949219 12.261719 15.488281 L 12.175781 15.539062 C 11.046875 16.230469 9.796875 16.992188 8.148438 17.265625 C 6.433594 17.550781 4.414062 17.296875 1.695312 16.214844 C 1.164062 16 0.902344 15.398438 1.117188 14.863281 C 1.332031 14.332031 1.9375 14.070312 2.46875 14.285156 C 4.960938 15.28125 6.585938 15.417969 7.804688 15.214844 C 9.039062 15.011719 9.984375 14.441406 11.175781 13.714844 C 12.308594 13.023438 13.476562 12.414062 14.71875 12.011719 Z M 14.71875 12.011719 "/>
</g>
</svg>
