<?xml version="1.0" encoding="UTF-8"?>
<svg xmlns="http://www.w3.org/2000/svg" xmlns:xlink="http://www.w3.org/1999/xlink" width="25px" height="25px" viewBox="0 0 25 25" version="1.1">
<defs>
<filter id="alpha" filterUnits="objectBoundingBox" x="0%" y="0%" width="100%" height="100%">
  <feColorMatrix type="matrix" in="SourceGraphic" values="0 0 0 0 1 0 0 0 0 1 0 0 0 0 1 0 0 0 1 0"/>
</filter>
<mask id="mask0">
  <g filter="url(#alpha)">
<rect x="0" y="0" width="25" height="25" style="fill:rgb(0%,0%,0%);fill-opacity:0.4;stroke:none;"/>
  </g>
</mask>
<clipPath id="clip1">
  <rect x="0" y="0" width="25" height="25"/>
</clipPath>
<g id="surface5" clip-path="url(#clip1)">
<path style=" stroke:none;fill-rule:nonzero;fill:rgb(40.784314%,41.568627%,43.529412%);fill-opacity:1;" d="M 3.386719 14.582031 C 3.386719 14.152344 3.734375 13.800781 4.167969 13.800781 L 19.269531 13.800781 C 21.714844 13.800781 23.699219 15.785156 23.699219 18.230469 C 23.699219 20.675781 21.714844 22.65625 19.269531 22.65625 C 16.824219 22.65625 14.84375 20.675781 14.84375 18.230469 L 14.84375 17.707031 C 14.84375 17.277344 15.195312 16.925781 15.625 16.925781 C 16.054688 16.925781 16.40625 17.277344 16.40625 17.707031 L 16.40625 18.230469 C 16.40625 19.8125 17.6875 21.09375 19.269531 21.09375 C 20.851562 21.09375 22.136719 19.8125 22.136719 18.230469 C 22.136719 16.648438 20.851562 15.363281 19.269531 15.363281 L 4.167969 15.363281 C 3.734375 15.363281 3.386719 15.015625 3.386719 14.582031 Z M 3.386719 14.582031 "/>
</g>
<mask id="mask1">
  <g filter="url(#alpha)">
<rect x="0" y="0" width="25" height="25" style="fill:rgb(0%,0%,0%);fill-opacity:0.701961;stroke:none;"/>
  </g>
</mask>
<clipPath id="clip2">
  <rect x="0" y="0" width="25" height="25"/>
</clipPath>
<g id="surface8" clip-path="url(#clip2)">
<path style=" stroke:none;fill-rule:nonzero;fill:rgb(40.784314%,41.568627%,43.529412%);fill-opacity:1;" d="M 14.84375 7.8125 C 14.84375 5.367188 16.824219 3.386719 19.269531 3.386719 C 21.714844 3.386719 23.699219 5.367188 23.699219 7.8125 C 23.699219 10.257812 21.714844 12.238281 19.269531 12.238281 L 2.082031 12.238281 C 1.652344 12.238281 1.300781 11.890625 1.300781 11.457031 C 1.300781 11.027344 1.652344 10.675781 2.082031 10.675781 L 19.269531 10.675781 C 20.851562 10.675781 22.136719 9.394531 22.136719 7.8125 C 22.136719 6.230469 20.851562 4.949219 19.269531 4.949219 C 17.6875 4.949219 16.40625 6.230469 16.40625 7.8125 L 16.40625 8.332031 C 16.40625 8.765625 16.054688 9.113281 15.625 9.113281 C 15.195312 9.113281 14.84375 8.765625 14.84375 8.332031 Z M 14.84375 7.8125 "/>
</g>
</defs>
<g id="surface1">
<path style=" stroke:none;fill-rule:evenodd;fill:rgb(40.784314%,41.568627%,43.529412%);fill-opacity:1;" d="M 6.511719 5.730469 C 6.511719 3.859375 8.027344 2.34375 9.894531 2.34375 C 11.765625 2.34375 13.28125 3.859375 13.28125 5.730469 C 13.28125 7.597656 11.765625 9.113281 9.894531 9.113281 L 3.125 9.113281 C 2.695312 9.113281 2.34375 8.765625 2.34375 8.332031 C 2.34375 7.902344 2.695312 7.550781 3.125 7.550781 L 9.894531 7.550781 C 10.902344 7.550781 11.71875 6.734375 11.71875 5.730469 C 11.71875 4.722656 10.902344 3.90625 9.894531 3.90625 C 8.890625 3.90625 8.074219 4.722656 8.074219 5.730469 L 8.074219 6.101562 C 8.074219 6.53125 7.722656 6.882812 7.292969 6.882812 C 6.859375 6.882812 6.511719 6.53125 6.511719 6.101562 Z M 6.511719 5.730469 "/>
<use xlink:href="#surface5" mask="url(#mask0)"/>
<use xlink:href="#surface8" mask="url(#mask1)"/>
</g>
</svg>
