<?xml version="1.0" encoding="UTF-8"?>
<svg xmlns="http://www.w3.org/2000/svg" xmlns:xlink="http://www.w3.org/1999/xlink" width="25px" height="25px" viewBox="0 0 25 25" version="1.1">
<g id="surface1">
<path style=" stroke:none;fill-rule:evenodd;fill:rgb(40.784314%,41.568627%,43.529412%);fill-opacity:1;" d="M 21.636719 16.851562 L 17.984375 14.59375 C 19.066406 12.289062 19.964844 8.960938 19.933594 5.894531 C 22.535156 8.835938 23.152344 13.324219 21.636719 16.851562 M 15.847656 13.273438 L 14.242188 12.28125 L 12.109375 10.964844 L 10.503906 9.972656 C 12.03125 7.941406 14.578125 5.722656 17.371094 4.550781 C 17.648438 7.617188 16.902344 10.949219 15.847656 13.273438 M 8.367188 8.652344 L 4.71875 6.394531 C 7.183594 3.214844 11.253906 1.875 15.011719 2.855469 C 12.335938 4.253906 10.078125 6.25 8.367188 8.652344 M 19.542969 2.210938 C 19.460938 2.152344 19.378906 2.09375 19.292969 2.039062 C 19.191406 1.96875 19.097656 1.894531 18.992188 1.832031 C 18.894531 1.769531 18.792969 1.722656 18.691406 1.664062 C 18.59375 1.609375 18.492188 1.554688 18.390625 1.5 C 12.589844 -1.660156 5.3125 0.3125 1.863281 6.117188 C 1.644531 6.488281 1.449219 6.863281 1.273438 7.242188 L 3.425781 8.570312 L 7.050781 10.8125 L 9.183594 12.128906 L 10.816406 13.140625 L 5.273438 21.367188 C 4.917969 21.96875 4.152344 22.160156 3.5625 21.796875 C 2.972656 21.433594 2.785156 20.648438 3.140625 20.046875 L 3.785156 18.960938 C 4.144531 18.359375 3.957031 17.578125 3.367188 17.214844 C 2.777344 16.847656 2.011719 17.042969 1.652344 17.644531 L 0.359375 19.820312 C -0.351562 21.019531 0.0234375 22.585938 1.203125 23.3125 L 3.335938 24.632812 C 4.515625 25.359375 6.046875 24.976562 6.761719 23.773438 L 12.949219 14.457031 L 14.585938 15.46875 L 16.71875 16.785156 L 20.34375 19.027344 L 22.496094 20.355469 C 22.53125 20.378906 22.980469 19.667969 23.195312 19.304688 C 26.648438 13.488281 24.988281 5.992188 19.542969 2.210938 "/>
</g>
</svg>
