<?xml version="1.0" encoding="UTF-8"?>
<svg xmlns="http://www.w3.org/2000/svg" xmlns:xlink="http://www.w3.org/1999/xlink" width="25px" height="25px" viewBox="0 0 25 25" version="1.1">
<g id="surface1">
<path style=" stroke:none;fill-rule:nonzero;fill:rgb(40.784314%,41.568627%,43.529412%);fill-opacity:1;" d="M 20.644531 16.25 C 18.941406 15.902344 20.105469 14.988281 21.417969 14.636719 C 22.730469 14.285156 22.230469 12.40625 20.847656 12.878906 C 19.464844 13.347656 18.074219 14.929688 17.363281 14.515625 C 16.792969 14.1875 15.839844 13.636719 15.484375 13.429688 C 15.574219 13.136719 15.625 12.824219 15.625 12.5 C 15.625 12.175781 15.574219 11.863281 15.484375 11.570312 C 15.839844 11.363281 16.792969 10.8125 17.363281 10.484375 C 18.074219 10.070312 19.464844 11.652344 20.847656 12.121094 C 22.230469 12.59375 22.730469 10.714844 21.417969 10.363281 C 20.105469 10.011719 18.941406 9.097656 20.644531 8.75 C 22.347656 8.402344 23.878906 7.203125 23.328125 6.25 C 22.773438 5.296875 20.972656 6.023438 19.820312 7.320312 C 18.667969 8.621094 18.457031 7.160156 18.808594 5.84375 C 19.160156 4.53125 17.285156 4.027344 17.003906 5.457031 C 16.714844 6.890625 17.390625 8.882812 16.675781 9.296875 C 16.105469 9.625 15.152344 10.175781 14.792969 10.378906 C 14.375 9.925781 13.816406 9.59375 13.1875 9.453125 C 13.1875 9.039062 13.1875 7.941406 13.1875 7.277344 C 13.1875 6.457031 15.246094 6.042969 16.347656 5.082031 C 17.445312 4.121094 16.070312 2.746094 15.109375 3.707031 C 14.148438 4.671875 12.773438 5.222656 13.324219 3.570312 C 13.875 1.925781 13.601562 0 12.5 0 C 11.398438 0 11.125 1.925781 11.675781 3.570312 C 12.222656 5.222656 10.851562 4.671875 9.890625 3.707031 C 8.929688 2.746094 7.554688 4.121094 8.652344 5.082031 C 9.753906 6.042969 11.8125 6.457031 11.8125 7.277344 C 11.8125 7.941406 11.8125 9.039062 11.8125 9.449219 C 11.183594 9.59375 10.625 9.925781 10.207031 10.378906 C 9.847656 10.175781 8.894531 9.625 8.324219 9.296875 C 7.609375 8.882812 8.28125 6.890625 7.996094 5.457031 C 7.714844 4.027344 5.839844 4.53125 6.191406 5.84375 C 6.542969 7.160156 6.335938 8.621094 5.179688 7.320312 C 4.027344 6.023438 2.226562 5.296875 1.671875 6.25 C 1.121094 7.203125 2.652344 8.402344 4.355469 8.75 C 6.058594 9.097656 4.894531 10.011719 3.582031 10.363281 C 2.269531 10.714844 2.769531 12.59375 4.152344 12.121094 C 5.535156 11.652344 6.925781 10.070312 7.636719 10.484375 C 8.207031 10.8125 9.160156 11.363281 9.515625 11.570312 C 9.425781 11.863281 9.375 12.175781 9.375 12.5 C 9.375 12.824219 9.425781 13.136719 9.515625 13.429688 C 9.160156 13.636719 8.207031 14.1875 7.636719 14.515625 C 6.925781 14.929688 5.535156 13.347656 4.152344 12.878906 C 2.769531 12.40625 2.269531 14.285156 3.582031 14.636719 C 4.894531 14.988281 6.058594 15.902344 4.355469 16.25 C 2.652344 16.597656 1.121094 17.796875 1.671875 18.75 C 2.226562 19.703125 4.027344 18.976562 5.179688 17.679688 C 6.335938 16.378906 6.542969 17.839844 6.191406 19.15625 C 5.839844 20.46875 7.714844 20.972656 7.996094 19.542969 C 8.28125 18.109375 7.609375 16.117188 8.324219 15.703125 C 8.894531 15.375 9.847656 14.824219 10.207031 14.621094 C 10.625 15.078125 11.183594 15.40625 11.8125 15.550781 C 11.8125 15.960938 11.8125 17.058594 11.8125 17.722656 C 11.8125 18.542969 9.753906 18.957031 8.652344 19.917969 C 7.554688 20.878906 8.929688 22.253906 9.890625 21.292969 C 10.851562 20.328125 12.222656 19.777344 11.675781 21.429688 C 11.125 23.074219 11.398438 25 12.5 25 C 13.601562 25 13.875 23.074219 13.324219 21.429688 C 12.773438 19.777344 14.148438 20.328125 15.109375 21.292969 C 16.070312 22.253906 17.445312 20.878906 16.347656 19.917969 C 15.246094 18.957031 13.1875 18.542969 13.1875 17.722656 C 13.1875 17.058594 13.1875 15.960938 13.1875 15.550781 C 13.816406 15.40625 14.375 15.078125 14.792969 14.621094 C 15.152344 14.824219 16.105469 15.375 16.675781 15.703125 C 17.390625 16.117188 16.714844 18.109375 17.003906 19.542969 C 17.285156 20.972656 19.160156 20.46875 18.808594 19.15625 C 18.457031 17.839844 18.664062 16.378906 19.820312 17.679688 C 20.972656 18.976562 22.773438 19.703125 23.328125 18.75 C 23.878906 17.796875 22.347656 16.597656 20.644531 16.25 Z M 12.5 14.269531 C 11.523438 14.269531 10.730469 13.480469 10.730469 12.5 C 10.730469 11.523438 11.523438 10.730469 12.5 10.730469 C 13.476562 10.730469 14.269531 11.523438 14.269531 12.5 C 14.269531 13.480469 13.476562 14.269531 12.5 14.269531 Z M 12.5 14.269531 "/>
</g>
</svg>
